<?xml version="1.0" encoding="UTF-8"?>
<svg version="1.1" viewBox="0 0 1024 1024" width="1024" height="1024" xmlns="http://www.w3.org/2000/svg">
<path transform="translate(688,240)" d="m0 0h7v4l-8 7-12 13-73 73-7 8-24 24-7 8-5 4-7 8-3 2-84 1 1-4 19-19 4-5 107-107 4-5 8-7 4-4z" fill="#097CB1"/>
<path transform="translate(560,240)" d="m0 0h8l-1 4-46 46-6 7-65 65-7 8-8 9h-2l-2 4-7 7-2 1h-160l1-4 10-9 7-8 12-13 11-11 4-1h109l5-3 14-14 7-8 29-29 14-15 35-35z" fill="#0794B0"/>
<path transform="translate(521,603)" d="m0 0h71l-2 4-10 10h-2l-2 4-5 5-13 12-12 12-7 8-13 12-6 7-8 7-11 11-5 6-5 5h-2l-1 3-5 5-5 4-6 7-20 20h-2l-2 4-8 8h-2l-2 4-3 2h-69l1-4 16-15 107-107 5-6 16-16 6-5 3-4h2z" fill="#5B0C72"/>
<path transform="translate(722,602)" d="m0 0 3 1-3 5-4 4h-2l-2 4-18 18-16 15-8 8-7 8-7 5-8-1-33-1-19 1-17 16-77 77-2 1h-14l-11 1-7 2 2-7 8-7 42-42h2l2-4 13-12 16-16 6-7 5-5 5-4 3-4h2l2-4 8-7 10-10 7-8 26-26z" fill="#9B2199"/>
<path transform="translate(753,430)" d="m0 0h21l6 7 14 19 12 16 8 12 8 10 9 12 5 8 2 1-1-60-1-23 1-2h23l1 1v131h-19l-4-2-11-16-12-17-10-13-12-17-10-15-3-4v-2h-3v86h-22l-1-1-1-101z" fill="#9C219A"/>
<path transform="translate(661,428)" d="m0 0h12l17 3 17 8 11 9 8 10 8 16 3 12v23l-5 17-6 10-9 10-9 8-11 6-11 3-9 1h-19l-12-3-16-8-10-8-9-11-6-11-3-9-1-6v-26l2-11 6-11 8-10 10-10 16-8 10-3zm-3 25-14 5-8 7-9 14-2 6v20l4 11 6 9 7 7 14 7 9 2 1 14 1 2h3l1-16 12-2 9-4 10-9 8-11 3-10v-15l-4-12-6-9-5-5-8-6-9-4-4-1z" fill="#9B229A"/>
<path transform="translate(433,603)" d="m0 0h53l-2 4-7 8-8 7-90 90-7 8-13 12-11 12-12 12-7 6-37 1h-16l1-4 21-21h2l2-4 13-12 7-8h2l2-4 7-6 18-18 3-4h2l1-3 8-7 7-8 9-8 7-8 4-2 2-4z" fill="#3D136A"/>
<path transform="translate(497,430)" d="m0 0h97l1 1v24l-13 15-10 11-7 9-9 10-8 10-9 10-9 11-4 6h66l3 1v24l-104-1-1-1v-21l12-13 9-11 9-10 7-8 12-14 11-13 10-11 1-4h-62l-2-2z" fill="#6B2496"/>
<path transform="translate(265,430)" d="m0 0h63l13 4 9 5 8 8 5 9 3 10v18l-4 12-7 9-7 6-8 4 1 4 20 26 7 9 5 7v1h-30l-5-5-11-15-18-24-14-18h-3l-1 18v44h-24l-1-1-1-66 1-1 60-1 10-5 4-6 1-3v-11l-4-6v-2l-5-2-10-3-56-1-1-9z" fill="#0793B0"/>
<path transform="translate(387,602)" d="m0 0h3l-1 4-13 13-5 4-7 8-11 10-5 5-2 3h-2v2h-2l-2 4-70 70-4 1 1-19v-39l-1-24 2-6 4-2 2-4 29-29z" fill="#0D4C8A"/>
<path transform="translate(707,274)" d="m0 0h3v80l-2 7-30 30-73 1-12 1-1-4 112-112z" fill="#8141AB"/>
<path transform="translate(370,430)" d="m0 0h28l17 28 5 9 9 15h2l8-13 8-15 7-11 7-12 1-1h29l-3 7-10 15-7 12-9 14-8 13-10 15-1 1-1 55h-23l-1-2-1-52-14-23-15-24-9-14-7-10-2-4z" fill="#097DB1"/>
<path transform="translate(688,240)" d="m0 0h7v4l-8 7-12 13-30 30-4 2-11 11h-2v2l-3 1v-4l3-1-2-8-9-3v2l-5-2v-2l-9 1-2 1h-6l-1-3h-3l-2 4-14-5-8-1-5 5-2-1 36-36 4-5 8-7 4-4z" fill="#06B7BE"/>
<path transform="translate(219,430)" d="m0 0h33l-1 4-14 15-10 13-12 13-8 10-5 6 1 4 9 11 7 9 9 11 8 10 7 8 9 10 4 5v3h-14l-18-1-9-10-9-12-13-16-6-8-10-12-6-8 1-7 13-16 12-14 10-14z" fill="#07A1A4"/>
<path transform="translate(567,288)" d="m0 0 12 2 10 4 2-4 4 1v2h6l9-2 5 4 2 1v-2l9 3 2 4v4l-3 2 1 2h2v-2l8-7 5-5 3-2-2 4-40 40-7 8-5 5-2 1-2-4 4-2h2l-4-4-2-4-7-4-7 1-2 2h-5l-2-2-6 1-8 3-22 2-4 3-4-1-3-1-10 10-1 2h-2v2l-8 7h-2l2-4 64-64 5-3z" fill="#0694B0"/>
<path transform="translate(307,345)" d="m0 0h81l28 1v1l-23 1h-7l-4 3h-2l1 3-6 1-1 2-5 2-8 9-4 2-1 3-4 4-2 3-3 1-3 3h-2l-1 5h-21l-30 2h-28l1-4 10-9 7-8 12-13 11-11z" fill="#069FAB"/>
<path transform="translate(521,603)" d="m0 0h71l-2 4-10 10h-2l-2 4-5 5-13 12-12 12-7 8-13 12-5 6-5-2-5 1-4 1-1-2 6-7 4-1v-6l-1-2-7 1-3 1 1-8 4-2v2l4-1 2-3-3-4-5 1-1-3 2-10v-3l-7 2-5-2 2-4 10-10 6-5 3-4h2z" fill="#9A2199"/>
<path transform="translate(141,430)" d="m0 0h24l1 1v131h-17l-7-1-1-31v-86l-1-13z" fill="#0A95B1"/>
<path transform="translate(661,428)" d="m0 0h12l17 3 13 6v2l-6-1 5 2v2h2l1 5 5 1v5l-2 1-4-2-5 1-4 1-1 5-6-1-11-4h-19l-14 5-7 6-9 14-2 6v20l4 11 4 6-1 2-4-4v-2h-2v-2l-4-2-1-11-4-2-6 1-3-3-2-8-4-1 1 9-2 6h-1v-23l2-11 6-11 8-10 10-10 16-8 10-3z" fill="#8140AB"/>
<path transform="translate(497,430)" d="m0 0h97l1 1v24l-6 3h-3v-3l-4-1-2-2-5-1-9 6h-2v2l-8 7-3 2 2-4 6-7v-2h-62l-2-2zm55 38m-1 1v3l-3 3-2-1z" fill="#6C40A2"/>
<path transform="translate(433,603)" d="m0 0h53l-2 4-7 8-8 7-32 32-1-4-1-5h-3l-3 1-8-2v-2l-8 4-9-1-9 3-2-1-2 5-5 1-4 8h-2v2h-2l-1-3 13-14h2l2-4z" fill="#6B2595"/>
<path transform="translate(560,240)" d="m0 0h8l-1 4-46 46-6 7h-3l-8 8-1-4 4-10v-2l-5-2-6 1-6 3h-11l-1-4 5-6h2l2-4 21-21v-3l12-12z" fill="#07B7BE"/>
<path transform="translate(265,430)" d="m0 0h63l13 4 9 5 8 8 5 9 1 4-7-1-5-5-3-1v8l-4 2-1 4h-2l-3-4-2-1v-2l-5-2-10-3-56-1-1-9z" fill="#06A1A4"/>
<path transform="translate(462,430)" d="m0 0h29l-3 7-10 15-7 12-9 14-8 13-4 5-2-1-4 8h-2l-1-1-1 3-10-19v-2h-2l1-2h2l8-13 8-15 7-11 7-12z" fill="#0A7FB1"/>
<path transform="translate(536,697)" d="m0 0v3l-3 4 2 6 8 3v4l-5 1-1 4-2 1-1 3 5-1-2 4-33 33-2 1h-14l-11 1-7 2 2-7 8-7 42-42h2l2-4z" fill="#5C0D73"/>
<path transform="translate(599,271)" d="m0 0 8 1 10 2 4-3 1 2 6-1 2-1 5 1 6-1 5 3 3 1 2 5v2h-2l-1 5-3 3 3-1-2 4-7 4-7 8-4 2v2l-3 1v-4l3-1-2-8-9-3v2l-5-2v-2l-9 1-2 1h-6l-1-3h-3l-2 4-14-5-8-1-5 5-2-1 19-19 6-1 3 2h6l2-3z" fill="#05ABBE"/>
<path transform="translate(416,279)" d="m0 0h4l-1 30-14 14-4 5-6 5-6 1h-27l2-4 8-6 42-42z" fill="#089FAC"/>
<path transform="translate(418,642)" d="m0 0h3v2l10 1-2-2 4 1 3 3 1 3-2 6-26 26-3-1-4-4-1 5-4-1-6-7 8-4 1-3-9-3-3-2-3 3-5-1 1-5h2l1-5 4-3v2l4-4 1-2 10-1 1-2 9 1z" fill="#5A0C72"/>
<path transform="translate(370,430)" d="m0 0h28l17 28 5 9 6 10-2 1-6-10v-2l-6 1v2h-3l-1 4v8l-3 6-4-5-16-26-11-16-4-7z" fill="#0795B0"/>
<path transform="translate(219,430)" d="m0 0h33l-1 4-14 15-10 13-12 13-3 3-3-3 1-4 4-3-2-5-6-1-6 1-4-1-2 1 2-4 12-16z" fill="#05AAA9"/>
<path transform="translate(517,261)" d="m0 0h3l1 5 3-1 5 1 1 1h2v7l-1 2 7-6 2 1-19 19-6 7h-3l-8 8-1-4 4-10v-2l-5-2-6 1-6 3h-11l-1-4 5-6h2l2-4 12-12h2v2l6 2v-2l7-1 2-4z" fill="#05AABE"/>
<path transform="translate(265,430)" d="m0 0h63l13 4 9 5 8 8 5 9 1 4-7-1-5-6 1-3-2-1v-2h-9v-2h-5l-4-3-3-3-2-5-6-1v-1l-14-1 1 1h12l-3 2h-6l-1 3-3 1-6-2v-2l-2 1-3 7h-2v2h-2l2 8-3 1h-24l-1-11v-10z" fill="#05ABA9"/>
<path transform="translate(224,524)" d="m0 0 4 2 8 10 7 8 9 10 4 5v3h-14l-18-1-9-10-9-12-9-11h3l4 5v-3h2l1-4 5-1 5 2h6z" fill="#0894B0"/>
<path transform="translate(148,430)" d="m0 0h17l1 1v38h-1l-1 17-4-2-2-4-2-5-1-4-11-3-1-2-1-34 6-1z" fill="#06A1A4"/>
<path transform="translate(633,679)" d="m0 0h5v3l-8 7-15 14-7 8-8 7-8 9-2-1v-22l2-6 17-17 4-1z" fill="#9A2099"/>
<path transform="translate(306,353)" d="m0 0 9 2h12l-3 3-7 3-3-2-1 1-4 6 1 3h8l2-1 4 2v3h-7l-2-1-1 5-7-1-2-1-8 3h-5l3 4v6l13 1v1l-18 1h-27l2-4 6-5h6v-7l6-5 5-5h8l6-4-1-2 2-2v-2z" fill="#06A0A3"/>
<path transform="translate(347,531)" d="m0 0 5 2 9 12 7 9 5 7v1h-30l-5-5-6-8v-2l3-2 1-6 5-6z" fill="#097DB0"/>
<path transform="translate(603,490)" d="m0 0 5 1 3 9 5 1 3-1 4 3 1 11 3 2v2l2 1h-6l-1 5-3 5h-7l1 4 5-1 4-1 1-3 4 4-3 6-3 2-2 3-9-10-5-10-3-9-1-9 2-6z" fill="#6A2395"/>
<path transform="translate(520,604)" d="m0 0h61v1h-16l-1 3-7 3h-3v-2h-2v-2l-5 2-2 6-5 1-7-2-2 4-5 1-4-1h-2l-2 5h-2l-1 4-10 3-3 1-5-2 2-4 10-10 6-5 3-4h2z" fill="#6A2395"/>
<path transform="translate(245,330)" d="m0 0h103l4 2v3l-6 1h-109l-1-4 1-1z" fill="#06ABB0"/>
<path transform="translate(812,281)" d="m0 0 5 1 1 2-7 8-60 60-3 4h-3l-1-6 36-36 7-8z" fill="#A638A4"/>
<path transform="translate(497,430)" d="m0 0h97l1 1v24l-6 3h-3v-3l-4-1v-14h-12l-5-3-1-3 3-2h-5l-2 3-7 1-1-3-2-1-53-1z" fill="#8445AD"/>
<path transform="translate(419,529)" d="m0 0h1l1 14 1 2 3-1 5-6 7-7 5 1v30h-23l-1-2z" fill="#0A4B89"/>
<path transform="translate(266,494)" d="m0 0h55v1l-16 1-2 8 2 3-3 2-7-9h-3l-2 8-4 1-4 4-13-2-1-1v-15z" fill="#079DAB"/>
<path transform="translate(214,388)" d="m0 0h18l26 1-1 4-6 1h-38l-70-1-1-3 4-1z" fill="#069EAC"/>
<path transform="translate(265,430)" d="m0 0h63l13 4 9 5 8 8 5 9 1 4-7-1-5-6 1-3-2-1v-2h-9v-2h-5l-4-3-3-3-2-5-6-1v-1h-35l-5 1v-2h-10l-1 3-2 3-1 5h-1v-10z" fill="#07B5BD"/>
<path transform="translate(226,643)" d="m0 0 4 1v5l-39 39-8 7-5 1v-4l23-23 2-3h2l2-4z" fill="#2590B9"/>
<path transform="translate(890,430)" d="m0 0h8l8 5 3 6v7l-5 8-4 3-8 1-8-3-5-8v-10l5-6zm3 2-7 3-4 6v8l4 5 3 1v-17l6-1 4 2v5l-2 1 2 4 2 6 4-4 1-8-3-7-4-3zm-1 7v5h4l1-4zm0 9-2 7 2 2h6v-4l-4-5z" fill="#AB46AA"/>
<path transform="translate(400,309)" d="m0 0 3 1 1 3-1 5 2 1 5-4-1 5-6 5-8 8-8 1-6-1 2-1-1-7 3-3h2v-5l4-3 7-3z" fill="#0696AF"/>
<path transform="translate(709,645)" d="m0 0h59v5l-2 1h-49l-9-1z" fill="#9B239A"/>
<path transform="translate(735,602)" d="m0 0h57l1 4-2 2h-52l-6-2v-3z" fill="#A02B9E"/>
<path transform="translate(464,773)" d="m0 0 3 4-3 5-24 24-7 6-1 2-4-1v-4l5-6 7-6 2-3h2l2-4 6-5 1-2h2l2-4z" fill="#681A81"/>
<path transform="translate(807,602)" d="m0 0h51l1 3-1 2-14 1h-35l-3-1z" fill="#A433A2"/>
<path transform="translate(245,330)" d="m0 0h103l4 2v3l-6 1h-38l-1-3-70-1v-1z" fill="#13BBC2"/>
<path transform="translate(786,194)" d="m0 0 3 1 1 4-33 33-6 2-1 3h-2l1-4 7-8 9-10 7-6 7-8z" fill="#AD48AB"/>
<path transform="translate(306,347)" d="m0 0 10 1h3 8l1 3h2l-1 5h-14l-9-2-3 1 1 3-3 5-5 3h-8v-2l5-5 9-8z" fill="#05AAA8"/>
<path transform="translate(707,274)" d="m0 0h3v80l-1 6h-1l-1-55 1-15-9-1-8 2 6-7 5-6z" fill="#AE4BAC"/>
<path transform="translate(718,190)" d="m0 0 3 1 1 5-13 13-7 8-6 5-3-3 1-4 7-8z" fill="#0CB7BF"/>
<path transform="translate(349,453)" d="m0 0 5 1 3 4 4 1 1-2 3 4 1 5v8l-6-5-8-1-3-4-1-9z" fill="#069FAB"/>
<path transform="translate(148,390)" d="m0 0h50l5 1 26 1v1l-11 1-72-1 2-1z" fill="#0790B0"/>
<path transform="translate(528,707)" d="m0 0h2l1 5-5 6-3 1v-2l-3 1-1-2-10 10v-3l13-13zm-21 19m-1 1m-2 1 2 1-32 32 3 3-7 2 2-7 8-7z" fill="#7F1D8A"/>
<path transform="translate(307,345)" d="m0 0h46v1l-42 1-7 2-6 7-5 4-5 5-6 7-4 3-1 7-7 2-6 5-2 2 1-4 10-9 7-8 12-13 11-11z" fill="#06A6B2"/>
<path transform="translate(311,346)" d="m0 0h47v1l-9 1-1 3-5 1-5-1v2l-7 5h-2l1-7h-2l-1-2h-8-3l-5-1z" fill="#07A0A4"/>
<path transform="translate(295,786)" d="m0 0 4 2 1 4-7 6-10 10h-3l-1-5 7-8z" fill="#134A8B"/>
<path transform="translate(416,279)" d="m0 0h4l-1 28h-1v-11l-8-1-3 1-2-5 9-9z" fill="#0CA6A9"/>
<path transform="translate(226,643)" d="m0 0 4 1v5l-22 22-5-1 6-7 10-10 6-7z" fill="#2A6C9E"/>
<path transform="translate(236,332)" d="m0 0h43v1l-18 1h15l-2 2h-37z" fill="#069EAA"/>
<path transform="translate(892,436)" d="m0 0 6 1 2 2v5l-3 1 3 4v5l-4-2-4-4-1 5h-2l-1-4v-11zm0 3v5h4l1-4z" fill="#A537A4"/>
<path transform="translate(266,494)" d="m0 0h55v1l-16 1-2 8 2 3-3 2-6-8-1-5-29-1z" fill="#06A9B3"/>
<path transform="translate(589,191)" d="m0 0 5 2 2 2v6l-3 3-6-1-3-2v-7z" fill="#0EB5BD"/>
<path transform="translate(497,430)" d="m0 0h78v1l-13 1-2 3-7 1-1-3-2-1-53-1z" fill="#B376C1"/>
<path transform="translate(197,673)" d="m0 0v3l-8 8 2 1v-2h2v-2l5-2v-2h2l-2 4-7 7-8 7-5 1v-4l5-5z" fill="#57B5C9"/>
<path transform="translate(507,255)" d="m0 0 2 1-27 27-4 5-3 2-2 3-6 2 5-5 12-13 5-4 7-8 8-8z" fill="#06A3AF"/>
<path transform="translate(441,795)" d="m0 0 2 1-1 2 4 2-13 12-1 2-4-1v-4l5-6 7-6z" fill="#6E2596"/>
<path transform="translate(351,442)" d="m0 0 4 2 7 9 2 7-7-1-5-6 1-3-2-1v-2h-3l2-4z" fill="#05AAB9"/>
<path transform="translate(535,318)" d="m0 0 2 1-20 20-7 8-5 6h-2v2l-8 7h-2l2-4 16-16z" fill="#06A2B5"/>
<path transform="translate(211,518)" d="m0 0h4l1 5 5 2 4-2v4l-2 1h-6l-5-2-5 1-1 3-3-1 1-7 6-1z" fill="#079FAA"/>
<path transform="translate(249,596)" d="m0 0 7 1 2 3-1 5-3 3-4-1-3-2v-6z" fill="#1991B2"/>
<path transform="translate(294,285)" d="m0 0h5l3 3v5l-7 6-2-1-1-4v-7z" fill="#10B7BE"/>
<path transform="translate(400,296)" d="m0 0 2 1-5 6-1 2-5 3-5 6-6 5-1 3-5 3-4 4-2 3h-2v2h-4l2-4 8-6z" fill="#06A5B5"/>
<path transform="translate(622,528)" d="m0 0 3 1 2 4-3 5-3 2-2 3-5-5v-4l5-3h3z" fill="#6B2496"/>
<path transform="translate(265,430)" d="m0 0h61l-1 3-3-1h-35l-5 1v-2h-10l-1 3-2 3-1 5h-1v-10z" fill="#06B8BF"/>
<path transform="translate(232,389)" d="m0 0h26l-1 4-6 1h-22l-1-3 20 1v-2h-16z" fill="#06A0B5"/>
<path transform="translate(886,432)" d="m0 0 3 2-4 4-2 3v8l5 6v3l-5-2-4-7v-10l5-6z" fill="#A337A3"/>
<path transform="translate(732,388)" d="m0 0 5 1 1 1v6l-5 4-5-3v-6z" fill="#8B46AD"/>
<path transform="translate(329,266)" d="m0 0 6 2v7l-5 3h-2l-3-4 1-6z" fill="#11B5BE"/>
<path transform="translate(665,194)" d="m0 0 5 1 2 2v5l-6 5-2-3-2-5z" fill="#17B9C2"/>
<path transform="translate(496,629)" d="m0 0v3l2 5h-4l-1-2-28 28-2-1 25-25 5-6z" fill="#632089"/>
<path transform="translate(349,453)" d="m0 0 5 1 3 4 4 1 1-2 2 5-3 2-4-1v-2h-8l-1-6z" fill="#0794AF"/>
<path transform="translate(295,786)" d="m0 0 4 2 1 4-1 1h-5l-1-2-11 11v2l3 2-2 2h-3l-1-5 7-8z" fill="#744F9B"/>
<path transform="translate(146,389)" d="m0 0h63v1h-61v2l-5 1-1-3z" fill="#06B8BF"/>
<path transform="translate(298,332)" d="m0 0h29v1l-8 1v1l-11 1h-14v-2h4z" fill="#06A1A6"/>
<path transform="translate(322,378)" d="m0 0 6 3-1 6h-9l-2-1 2-5z" fill="#07A1A3"/>
<path transform="translate(528,707)" d="m0 0h2l1 5-5 6-3 1v-2l-3 1 1-4 5-6z" fill="#9C219A"/>
<path transform="translate(399,670)" d="m0 0 1 4 2 3-1 5-4-1-6-7z" fill="#5B0C72"/>
<path transform="translate(348,331)" d="m0 0 4 1v3l-6 1h-14l-2-2 5-1v-1z" fill="#06AEB3"/>
<path transform="translate(141,430)" d="m0 0 13 1v1h-12l1 5v29h-1l-2-35z" fill="#0E98B2"/>
<path transform="translate(225,644)" d="m0 0v3l-14 15-6 5 1-4z" fill="#4296B8"/>
<path transform="translate(167,643)" d="m0 0 4 1 1 5-6 5h-2l1-8z" fill="#5988B3"/>
<path transform="translate(230,430)" d="m0 0h22l-4 4-4-1h-7l-5 1-2-1z" fill="#06B7BE"/>
<path transform="translate(473,383)" d="m0 0 2 3-1 6h-9l1-4 5-4z" fill="#1495B4"/>
<path transform="translate(492,362)" d="m0 0h2l-2 4-12 11-5 6-4 2 2-4 12-12 4-5z" fill="#078FB1"/>
<path transform="translate(242,782)" d="m0 0 4 2v5l-3 3-4-1-1-4z" fill="#69ADC8"/>
<path transform="translate(338,457)" d="m0 0h5l4 5-2 1-1 4h-2l-3-4-2-1z" fill="#05ABBD"/>
<path transform="translate(165,431)" d="m0 0h1v13l-3 3-2-10v-4l-2-1h5z" fill="#05ADAD"/>
<path transform="translate(836,279)" d="m0 0h5l1 6-4 4h-2l-1-8z" fill="#AB53B1"/>
<path transform="translate(337,789)" d="m0 0 5 1 1 5-3 3-4-2-1-5z" fill="#53237C"/>
<path transform="translate(579,274)" d="m0 0 3 1-7 6-6 7-7 6-2-1z" fill="#06A8B0"/>
<path transform="translate(441,795)" d="m0 0 2 1-7 8-6 7 3 1-1 2-4-1v-4l5-6 7-6z" fill="#803DA3"/>
<path transform="translate(434,654)" d="m0 0 2 1-10 10h-1v-6l2-3z" fill="#6A2898"/>
<path transform="translate(593,551)" d="m0 0h1v9l1 2h-10l3-5 3-1 1-4z" fill="#9C219A"/>
<path transform="translate(232,389)" d="m0 0h26l-1 4-9-1v-2h-16z" fill="#06B7BE"/>
<path transform="translate(276,376)" d="m0 0h1v6l-7 2-6 5-2 2 1-4 10-9z" fill="#17A1B3"/>
<path transform="translate(291,360)" d="m0 0v3l-6 5-9 9-2-1 9-9 4-5z" fill="#069FB3"/>
<path transform="translate(390,646)" d="m0 0 2 1-8 8-2 6h-2v2h-2l-1-3z" fill="#7B359E"/>
<path transform="translate(496,629)" d="m0 0v3l2 5h-4l-1-2-8 7v-3l6-5z" fill="#7A2191"/>
<path transform="translate(590,709)" d="m0 0h2l1 17h-3z" fill="#6A1E88"/>
<path transform="translate(889,453)" d="m0 0 2 1 1 2 6 1-1 3-9-1-2-4h3z" fill="#BB68BA"/>
<path transform="translate(375,321)" d="m0 0 4 1-5 3-4 4-2 3h-2v2h-4l2-4 8-6z" fill="#0DAEBA"/>
<path transform="translate(142,535)" d="m0 0h1l1 19 2 7h-4z" fill="#094B89"/>
<path transform="translate(736,390)" d="m0 0h2v6l-5 4-5-3v-6l2 1v3l5 1z" fill="#A840A8"/>
<path transform="translate(448,495)" d="m0 0h2l-2 5-4 6h-2l-3-6 1-2 2 5h2l1-4z" fill="#175C93"/>
<path transform="translate(182,689)" d="m0 0 4 2-4 5h-4v-4z" fill="#FDFDFD"/>
<path transform="translate(344,468)" d="m0 0 2 1-1 7v4h-2v2h-2l1-12z" fill="#079FA9"/>
<path transform="translate(217,432)" d="m0 0h2l-2 4-10 11v-3z" fill="#06A1AE"/>
<path transform="translate(404,293)" d="m0 0 3 1-1 5-2 2h-3l2-7z" fill="#0795AF"/>
<path transform="translate(293,292)" d="m0 0h8l-2 4-4 3-2-1z" fill="#4EB5C3"/>
<path transform="translate(552,711)" d="m0 0v3l-10 10-2-1 3-4h2l2-4z" fill="#5E137B"/>
<path transform="translate(881,449)" d="m0 0h2l5 6v3l-5-2-3-6z" fill="#A146A9"/>
<path transform="translate(321,355)" d="m0 0h6l-3 3-4 2-5-3v-1z" fill="#07A0A5"/>
<path transform="translate(178,503)" d="m0 0 5 2 5 7-1 3-9-11z" fill="#179CB5"/>
<path transform="translate(141,430)" d="m0 0 13 1v1h-12v7h-1l-1-8z" fill="#078FB1"/>
<path transform="translate(299,350)" d="m0 0 2 1-8 9-5 2 6-7z" fill="#06A3B5"/>
<path transform="translate(643,293)" d="m0 0v3l-11 11-2-1 12-12z" fill="#069BAA"/>
<path transform="translate(579,614)" d="m0 0h2l-1 3h-2l-2 4h-4l1-4 5-2z" fill="#732296"/>
<path transform="translate(513,295)" d="m0 0v3l-7 8-2 1 1-4z" fill="#069FB2"/>
<path transform="translate(663,198)" d="m0 0 2 1v2l4 1v3l-4 2-3-6z" fill="#29AEBC"/>
<path transform="translate(235,444)" d="m0 0 4 1-4 7-2 1v-7z" fill="#06B5BB"/>
<path transform="translate(376,322)" d="m0 0 2 1-9 9 1-4zm-9 8 2 3h-4z" fill="#0793B0"/>
<path transform="translate(279,307)" d="m0 0h4l-1 3-3-1z" fill="#FDFDFD"/>
<path transform="translate(469,766)" d="m0 0" fill="#FDFDFD"/>
<path transform="translate(283,306)" d="m0 0 2 1z" fill="#FDFDFD"/>
<path transform="translate(664,207)" d="m0 0" fill="#FDFDFD"/>
</svg>
